<svg width="64" height="64" viewBox="0 0 64 64" fill="none" xmlns="http://www.w3.org/2000/svg">
  <!-- Dark background matching app navbar -->
  <rect width="64" height="64" rx="14" fill="#131518"/>

  <defs>
    <!-- Left half clip (Sui) -->
    <clipPath id="cl">
      <rect x="0" y="0" width="32" height="64"/>
    </clipPath>
    <!-- Right half clip (Solana) -->
    <clipPath id="cr">
      <rect x="32" y="0" width="32" height="64"/>
    </clipPath>
    <!-- Solana gradient (objectBoundingBox: bottom-left → top-right) -->
    <linearGradient id="sg" x1="0" y1="1" x2="1" y2="0">
      <stop offset="8%"  stop-color="#9945FF"/>
      <stop offset="30%" stop-color="#8752F3"/>
      <stop offset="50%" stop-color="#5497D5"/>
      <stop offset="60%" stop-color="#43B4CA"/>
      <stop offset="72%" stop-color="#28E0B9"/>
      <stop offset="97%" stop-color="#19FB9B"/>
    </linearGradient>
  </defs>

  <!-- LEFT HALF: Sui droplet (white), centered across full width, clipped to left -->
  <!-- Sui viewBox 783×1000, scale=0.056 → 43.85×56, tx=(64-43.85)/2=10.075, ty=4 -->
  <g clip-path="url(#cl)">
    <g transform="translate(10.075 4) scale(0.056)">
      <path fill-rule="evenodd" clip-rule="evenodd" d="M626.027 417.029C666.817 468.244 691.209 533.014 691.209 603.469C691.209 673.925 666.076 740.673 624.214 792.176L620.588 796.626L619.641 790.981C618.817 786.201 617.869 781.34 616.757 776.478C595.785 684.349 527.471 605.365 415.03 541.378C339.095 498.28 295.626 446.448 284.213 387.487C276.838 349.375 282.318 311.098 292.907 278.301C303.496 245.545 319.235 218.063 332.626 201.541L376.383 148.06C384.046 138.666 398.426 138.666 406.09 148.06L626.068 417.029H626.027ZM695.206 363.59L402.01 5.12968C396.407 -1.70989 385.942 -1.70989 380.338 5.12968L87.184 363.59L86.2363 364.784C32.3026 431.738 0 516.821 0 609.444C0 825.138 175.151 1000 391.174 1000C607.198 1000 782.349 825.138 782.349 609.444C782.349 516.821 750.046 431.738 696.112 364.826L695.165 363.631L695.206 363.59ZM157.351 415.876L183.556 383.779L184.339 389.712C184.957 394.409 185.74 399.106 186.646 403.844C203.622 492.883 264.23 567.088 365.546 624.565C453.637 674.708 504.934 732.35 519.684 795.554C525.864 821.924 526.936 847.881 524.258 870.584L524.093 871.985L522.816 872.603C483.055 892.009 438.351 902.927 391.133 902.927C225.459 902.927 91.1394 768.855 91.1394 603.428C91.1394 532.396 115.902 467.172 157.269 415.793L157.351 415.876Z" fill="white"/>
    </g>
  </g>

  <!-- RIGHT HALF: Solana mark (gradient), centered across full width, clipped to right -->
  <!-- Solana viewBox 101×88, scale=0.6364 → 64.27×56, tx=(64-64.27)/2=-0.135, ty=4 -->
  <g clip-path="url(#cr)">
    <g transform="translate(-0.135 4) scale(0.6364)">
      <path d="M100.48 69.3817L83.8068 86.8015C83.4444 87.1799 83.0058 87.4816 82.5185 87.6878C82.0312 87.894 81.5055 88.0003 80.9743 88H1.93563C1.55849 88 1.18957 87.8926 0.874202 87.6912C0.558829 87.4897 0.31074 87.2029 0.160416 86.8659C0.0100923 86.529 -0.0359181 86.1566 0.0280382 85.7945C0.0919944 85.4324 0.263131 85.0964 0.520422 84.8278L17.2061 67.408C17.5676 67.0306 18.0047 66.7295 18.4904 66.5234C18.9762 66.3172 19.5002 66.2104 20.0301 66.2095H99.0644C99.4415 66.2095 99.8104 66.3169 100.126 66.5183C100.441 66.7198 100.689 67.0067 100.84 67.3436C100.99 67.6806 101.036 68.0529 100.972 68.415C100.908 68.7771 100.737 69.1131 100.48 69.3817ZM83.8068 34.3032C83.4444 33.9248 83.0058 33.6231 82.5185 33.4169C82.0312 33.2108 81.5055 33.1045 80.9743 33.1048H1.93563C1.55849 33.1048 1.18957 33.2121 0.874202 33.4136C0.558829 33.6151 0.31074 33.9019 0.160416 34.2388C0.0100923 34.5758 -0.0359181 34.9482 0.0280382 35.3103C0.0919944 35.6723 0.263131 36.0083 0.520422 36.277L17.2061 53.6968C17.5676 54.0742 18.0047 54.3752 18.4904 54.5814C18.9762 54.7875 19.5002 54.8944 20.0301 54.8952H99.0644C99.4415 54.8952 99.8104 54.7879 100.126 54.5864C100.441 54.3849 100.689 54.0981 100.84 53.7612C100.99 53.4242 101.036 53.0518 100.972 52.6897C100.908 52.3277 100.737 51.9917 100.48 51.723L83.8068 34.3032ZM1.93563 21.7905H80.9743C81.5055 21.7907 82.0312 21.6845 82.5185 21.4783C83.0058 21.2721 83.4444 20.9704 83.8068 20.592L100.48 3.17219C100.737 2.90357 100.908 2.56758 100.972 2.2055C101.036 1.84342 100.99 1.47103 100.84 1.13408C100.689 0.79713 100.441 0.510296 100.126 0.308823C99.8104 0.107349 99.4415 0 99.0644 0L20.0301 0C19.5002 0.000878397 18.9762 0.107699 18.4904 0.313848C18.0047 0.519998 17.5676 0.821087 17.2061 1.19848L0.524723 18.6183C0.267681 18.8866 0.0966198 19.2223 0.0325185 19.5839C-0.0315829 19.9456 0.0140624 20.3177 0.163856 20.6545C0.31365 20.9913 0.561081 21.2781 0.875804 21.4799C1.19053 21.6817 1.55886 21.7896 1.93563 21.7905Z" fill="url(#sg)"/>
    </g>
  </g>

  <!-- Centre divider -->
  <rect x="31.5" y="12" width="1" height="40" fill="#2a2d35"/>
</svg>
