<svg preserveAspectRatio="none" width="100%" height="100%" overflow="visible" style="display: block;" viewBox="0 0 35.1742 37" fill="none" xmlns="http://www.w3.org/2000/svg">
<g id="icon_writing">
<path id="Vector 192" d="M26.1776 6.98387L21.2421 6.98387L21.2421 2.04838" stroke="var(--stroke-0, white)" stroke-width="3"/>
<path id="Rectangle 51" d="M26.7258 13.8387V6.43548L21.7903 1.5H1.5V35.5H16.1329H26.7258V16.8548" stroke="var(--stroke-0, white)" stroke-width="3"/>
<path id="Vector 54" d="M5.88707 11.371L20.4193 11.371" stroke="var(--stroke-0, white)" stroke-width="1.09677"/>
<path id="Vector 62" d="M5.88707 19.5968L21.2419 19.5968" stroke="var(--stroke-0, white)" stroke-width="1.09677"/>
<path id="Vector 55" d="M5.88707 8.62899L21.2419 8.62899" stroke="var(--stroke-0, white)" stroke-width="1.09677"/>
<path id="Vector 63" d="M5.88707 16.8548L18.5 16.8548" stroke="var(--stroke-0, white)" stroke-width="1.09677"/>
<path id="Vector 57" d="M5.88707 5.88707L16.8548 5.88707" stroke="var(--stroke-0, white)" stroke-width="1.09677"/>
<path id="Vector 64" d="M5.88707 14.1129L19.5967 14.1129" stroke="var(--stroke-0, white)" stroke-width="1.09677"/>
<path id="Vector 65" d="M5.88707 22.3387L17.9516 22.3387" stroke="var(--stroke-0, white)" stroke-width="1.09677"/>
<g id="Group 7">
<path id="Rectangle 56" d="M23.2795 20.5236L21.7284 18.9726M23.2795 20.5236L33.6231 10.18L32.072 8.62896L21.7284 18.9726M23.2795 20.5236L19.2757 22.9764L21.7284 18.9726" stroke="var(--stroke-0, #298DFF)" stroke-width="2.19355"/>
<path id="Vector 66" d="M31.2961 12.5067L29.745 10.9557" stroke="var(--stroke-0, white)" stroke-width="2.31694"/>
</g>
</g>
</svg>
