<svg preserveAspectRatio="none" width="100%" height="100%" overflow="visible" style="display: block;" viewBox="0 0 17.1898 17.0189" fill="none" xmlns="http://www.w3.org/2000/svg">
<path id="Vector" d="M14.6465 14.501H12.0995V10.5516C12.0995 9.60989 12.0826 8.39754 10.7749 8.39754C9.44829 8.39754 9.24532 9.42364 9.24532 10.4831V14.5008H6.69831V6.37922H9.14343V7.48912H9.17766C9.42237 7.07486 9.77596 6.73407 10.2008 6.50304C10.6257 6.27202 11.1058 6.15941 11.5901 6.17721C14.1717 6.17721 14.6476 7.85848 14.6476 10.0457L14.6465 14.501ZM3.82446 5.26906C3.53213 5.26911 3.24634 5.18333 3.00325 5.02256C2.76015 4.86179 2.57069 4.63326 2.45877 4.36586C2.34685 4.09846 2.31751 3.80421 2.3745 3.5203C2.43147 3.23641 2.5722 2.97561 2.77887 2.7709C2.98554 2.5662 3.24888 2.42676 3.53559 2.37024C3.82229 2.31372 4.11948 2.34265 4.38958 2.45337C4.65968 2.56409 4.89055 2.75163 5.053 2.99227C5.21546 3.23292 5.3022 3.51585 5.30225 3.80531C5.30229 3.99749 5.26409 4.18781 5.18984 4.36538C5.11559 4.54295 5.00676 4.7043 4.86953 4.84022C4.73231 4.97614 4.56938 5.08397 4.39006 5.15755C4.21075 5.23114 4.01856 5.26902 3.82446 5.26906ZM5.09796 14.501H2.54831V6.37922H5.09796V14.501ZM15.9163 0.000109217H1.26846C0.935991 -0.00360514 0.615623 0.123525 0.377775 0.353561C0.139927 0.583603 0.00405741 0.897724 0 1.22691V15.7907C0.00391871 16.12 0.139709 16.4344 0.377548 16.6646C0.615388 16.8949 0.935832 17.0223 1.26846 17.0188H15.9163C16.2496 17.0229 16.571 16.8959 16.8097 16.6656C17.0485 16.4354 17.1852 16.1206 17.1898 15.7907V1.22586C17.1851 0.896019 17.0483 0.581538 16.8095 0.351506C16.5706 0.121475 16.2494 -0.00424043 15.9163 0.000109217Z" fill="var(--fill-0, black)"/>
</svg>
