<svg preserveAspectRatio="none" width="100%" height="100%" overflow="visible" style="display: block;" viewBox="0 0 26.2465 26.2465" fill="none" xmlns="http://www.w3.org/2000/svg">
<g id="Group 1008">
<path id="Vector" d="M1.09091 13.1233C1.09091 14.7034 1.40214 16.268 2.00682 17.7279C2.6115 19.1877 3.4978 20.5141 4.61511 21.6314C5.73241 22.7487 7.05885 23.635 8.51868 24.2397C9.97852 24.8444 11.5432 25.1556 13.1233 25.1556C14.7034 25.1556 16.268 24.8444 17.7279 24.2397C19.1877 23.635 20.5141 22.7487 21.6314 21.6314C22.7487 20.5141 23.635 19.1877 24.2397 17.7279C24.8444 16.268 25.1556 14.7034 25.1556 13.1233C25.1556 11.5432 24.8444 9.97852 24.2397 8.51868C23.635 7.05885 22.7487 5.73241 21.6314 4.61511C20.5141 3.4978 19.1877 2.6115 17.7279 2.00682C16.268 1.40214 14.7034 1.09091 13.1233 1.09091C11.5432 1.09091 9.97852 1.40214 8.51868 2.00682C7.05885 2.6115 5.73241 3.4978 4.61511 4.61511C3.4978 5.73241 2.6115 7.05885 2.00682 8.51868C1.40214 9.97852 1.09091 11.5432 1.09091 13.1233Z" stroke="var(--stroke-0, white)" stroke-width="2.18182"/>
<g id="NFT">
<path d="M9.85109 16.024V9.98439H11.1429V16.2379H8.63329L6.56797 10.1983V16.2379H5.27612V9.98439H7.794L9.85109 16.024Z" fill="var(--fill-0, white)"/>
<path d="M16.2371 9.98439V11.0705H13.3325V12.5846H16.1877V13.6707H13.3325V16.2379H12.0324V9.98439H16.2371Z" fill="var(--fill-0, white)"/>
<path d="M16.3098 9.98439H21.4936V11.0705H19.5518V16.2379H18.2517V11.0705H16.3098V9.98439Z" fill="var(--fill-0, white)"/>
</g>
</g>
</svg>
