<svg preserveAspectRatio="none" width="100%" height="100%" overflow="visible" style="display: block;" viewBox="0 0 111.861 32" fill="none" xmlns="http://www.w3.org/2000/svg">
<g id="objects">
<path id="Vector" d="M12.7861 10.445L8 13.4482V18.5819L12.7861 21.555L17.5722 18.5819V13.4482L12.7861 10.445Z" stroke="var(--stroke-0, white)" stroke-width="3"/>
<path id="Vector_2" d="M34.3583 10.445L29.5722 13.4482V18.5819L34.3583 21.555L39.1444 18.5819V13.4482L34.3583 10.445Z" stroke="var(--stroke-0, white)" stroke-width="3"/>
<path id="Vector_3" d="M55.9305 10.445L51.1444 13.4482V18.5819L55.9305 21.555L60.7166 18.5819V13.4482L55.9305 10.445Z" stroke="var(--stroke-0, white)" stroke-width="3"/>
<path id="Vector_4" d="M77.5027 10.445L72.7166 13.4482V18.5819L77.5027 21.555L82.2888 18.5819V13.4482L77.5027 10.445Z" stroke="var(--stroke-0, white)" stroke-width="3"/>
<path id="Vector_5" d="M99.0749 10.445L94.2888 13.4482V18.5819L99.0749 21.555L103.861 18.5819V13.4482L99.0749 10.445Z" stroke="var(--stroke-0, white)" stroke-width="3"/>
</g>
</svg>
