<svg preserveAspectRatio="none" width="100%" height="100%" overflow="visible" style="display: block;" viewBox="0 0 62.2251 32.5171" fill="none" xmlns="http://www.w3.org/2000/svg">
<g id="Group">
<path id="Vector" d="M54.4165 20.1833C54.4165 21.0703 54.221 21.8084 53.8364 22.3779C53.4559 22.9486 52.9776 23.3773 52.4136 23.6533C51.8549 23.9293 51.2975 24.07 50.7589 24.07C49.864 24.07 49.1164 23.7618 48.5403 23.1549C47.9669 22.5453 47.6775 21.7133 47.6775 20.6817V11.3583H45.1506V20.8358C45.1506 22.1018 45.361 23.1683 45.7777 24.007C46.1957 24.8444 46.7811 25.4821 47.5167 25.9015C48.2482 26.3128 49.095 26.5218 50.0328 26.5218C51.1663 26.5218 52.1202 26.2525 52.8677 25.7219C53.543 25.2369 54.0628 24.6487 54.4165 23.9721V26.3302H56.9434V11.3583H54.4165V20.1846V20.1833Z" fill="var(--fill-0, white)"/>
<path id="Vector_2" d="M41.3805 16.886C40.799 16.4733 40.18 16.1424 39.5409 15.9026C38.9179 15.6681 38.3445 15.4805 37.8341 15.3452L35.8324 14.8067C35.4733 14.7129 35.0741 14.5883 34.6481 14.4368C34.2246 14.2814 33.8133 14.0819 33.4289 13.8461C33.051 13.6075 32.7362 13.3089 32.4923 12.9565C32.2592 12.6041 32.1413 12.1754 32.1413 11.6811C32.1413 11.0874 32.3128 10.5503 32.6518 10.0853C32.9988 9.61508 33.4904 9.23993 34.1095 8.97064C34.7405 8.69867 35.4894 8.56067 36.3348 8.56067C37.4898 8.56067 38.4758 8.82326 39.2677 9.3431C40.0461 9.85356 40.4962 10.581 40.606 11.5055L40.6194 11.6234H43.1743L43.169 11.4854C43.1369 10.4725 42.818 9.55479 42.2245 8.75896C41.6391 7.96581 40.8351 7.33343 39.837 6.87925C38.8416 6.41971 37.688 6.18792 36.4112 6.18792C35.1344 6.18792 33.9849 6.42372 32.9573 6.88863C31.9324 7.34951 31.103 8.00734 30.4921 8.84604C29.8838 9.68206 29.5757 10.6749 29.5757 11.7962C29.5757 13.1507 30.0419 14.2627 30.9596 15.1014C31.864 15.928 33.106 16.5724 34.6507 17.0173L37.0637 17.7073C37.7429 17.8962 38.3847 18.12 38.9702 18.3718C39.5422 18.6183 40.0098 18.9412 40.3595 19.3337C40.6985 19.7142 40.8713 20.2194 40.8713 20.8343C40.8713 21.5149 40.669 22.1178 40.2684 22.6269C39.8638 23.136 39.3051 23.5406 38.6098 23.8301C37.9091 24.1154 37.1038 24.2601 36.2196 24.2601C35.4599 24.2601 34.7391 24.1462 34.0813 23.9225C33.4356 23.6947 32.893 23.3464 32.4709 22.8868C32.0583 22.4259 31.8184 21.8338 31.7581 21.1264L31.7475 21.0045H29.0304L29.041 21.1478C29.1188 22.2397 29.4591 23.2138 30.0527 24.0404C30.6515 24.8671 31.4808 25.5195 32.5192 25.9804C33.5588 26.4386 34.8048 26.6717 36.221 26.6717C37.7403 26.6717 39.0519 26.4131 40.117 25.9026C41.1942 25.3895 42.0249 24.6875 42.5836 23.8153C43.1503 22.9418 43.4383 21.9517 43.4383 20.8705C43.4383 19.9313 43.2414 19.1261 42.8542 18.4763C42.4696 17.8305 41.974 17.296 41.3805 16.8847V16.886Z" fill="var(--fill-0, white)"/>
<path id="Vector_3" d="M62.2224 7.50835C62.2224 7.05015 62.0469 6.65357 61.7026 6.32935C61.365 6.00647 60.955 5.84301 60.4807 5.84301C60.0065 5.84301 59.5938 6.00647 59.2495 6.33069C58.9105 6.65491 58.739 7.05149 58.739 7.50969C58.739 7.9679 58.9105 8.36313 59.2508 8.68869C59.5938 9.01159 60.0078 9.17504 60.4821 9.17504C60.9563 9.17504 61.3275 9.02632 61.6543 8.73425L61.6691 8.72085C61.6812 8.71013 61.6932 8.69942 61.7052 8.68736L61.7535 8.64047C62.067 8.32428 62.2251 7.94378 62.2251 7.50835H62.2224Z" fill="var(--fill-0, white)"/>
<path id="Vector_4" d="M61.7244 11.3563H59.1976V26.3284H61.7244V11.3563Z" fill="var(--fill-0, white)"/>
<path id="Vector_5" fill-rule="evenodd" clip-rule="evenodd" d="M20.3565 13.5606C21.683 15.2259 22.4761 17.332 22.4761 19.6231C22.4761 21.9141 21.6588 24.0845 20.2976 25.7592L20.1797 25.9039L20.1489 25.7203C20.1221 25.565 20.0912 25.4069 20.0551 25.2488C19.3731 22.2531 17.1518 19.6847 13.4956 17.604C11.0263 16.2026 9.6129 14.5171 9.24178 12.6C9.00196 11.3606 9.18015 10.116 9.52447 9.04953C9.86878 7.98441 10.3806 7.09077 10.816 6.55353L12.2389 4.81449C12.488 4.50902 12.9556 4.50902 13.2048 4.81449L20.3579 13.5606H20.3565ZM22.6061 11.8228L13.0722 0.166803C12.89 -0.0556008 12.5497 -0.0556008 12.3674 0.166803L2.83497 11.8228L2.80416 11.8617C1.05038 14.0389 0 16.8055 0 19.8173C0 26.831 5.69539 32.5171 12.7198 32.5171C19.7443 32.5171 25.4397 26.831 25.4397 19.8173C25.4397 16.8055 24.3893 14.0389 22.6355 11.8631L22.6047 11.8242L22.6061 11.8228ZM5.11661 13.5231L5.9687 12.4794L5.99416 12.6723C6.01425 12.825 6.03972 12.9777 6.06918 13.1318C6.62118 16.0271 8.59198 18.44 11.8865 20.309C14.751 21.9395 16.419 23.8139 16.8986 25.8691C17.0996 26.7265 17.1344 27.5706 17.0473 28.3088L17.042 28.3544L17.0004 28.3745C15.7076 29.0055 14.2539 29.3606 12.7185 29.3606C7.33125 29.3606 2.96358 25.0009 2.96358 19.6217C2.96358 17.312 3.76879 15.1911 5.11393 13.5204L5.11661 13.5231Z" fill="var(--fill-0, white)"/>
</g>
</svg>
